<?xml version="1.0" encoding="UTF-8" standalone="no"?>
<!-- Created with Inkscape (http://www.inkscape.org/) -->

<svg
   width="625.83063mm"
   height="361.56479mm"
   viewBox="0 0 625.83062 361.56479"
   version="1.1"
   id="svg1"
   xml:space="preserve"
   sodipodi:docname="Button.svg"
   inkscape:version="1.4.2 (f4327f4, 2025-05-13)"
   xmlns:inkscape="http://www.inkscape.org/namespaces/inkscape"
   xmlns:sodipodi="http://sodipodi.sourceforge.net/DTD/sodipodi-0.dtd"
   xmlns="http://www.w3.org/2000/svg"
   xmlns:svg="http://www.w3.org/2000/svg"><sodipodi:namedview
     id="namedview1"
     pagecolor="#ffffff"
     bordercolor="#000000"
     borderopacity="0.25"
     inkscape:showpageshadow="2"
     inkscape:pageopacity="0.0"
     inkscape:pagecheckerboard="0"
     inkscape:deskcolor="#d1d1d1"
     inkscape:document-units="mm"
     inkscape:zoom="0.29819748"
     inkscape:cx="959.09597"
     inkscape:cy="783.03814"
     inkscape:window-width="1920"
     inkscape:window-height="1017"
     inkscape:window-x="-8"
     inkscape:window-y="418"
     inkscape:window-maximized="1"
     inkscape:current-layer="g4" /><defs
     id="defs1" /><g
     id="layer1"
     transform="translate(207.87571,32.377878)"
     style="display:inline"><path
       style="display:inline;fill:#ffffff"
       d="m -153.25079,328.84386 c -25.43379,-2.96437 -46.69307,-21.48863 -52.8002,-46.00742 -1.94117,-7.79334 -1.82334,0.89222 -1.82334,-134.40519 0,-135.297404 -0.11783,-126.611842 1.82334,-134.405186 6.1583,-24.724225 27.36578,-43.06333 53.22429,-46.025562 4.40403,-0.504506 511.32853,-0.504506 515.73256,0 25.85852,2.962232 47.06599,21.301337 53.2243,46.025562 1.94116,7.793344 1.82333,-0.892218 1.82333,134.405186 0,135.29741 0.11783,126.61185 -1.82333,134.40519 -6.15906,24.72723 -27.36533,43.06985 -53.21,46.02464 -3.89771,0.44562 -512.3454,0.42866 -516.17095,-0.0172 z"
       id="outer" /><path
       style="display:inline;fill:#363636;fill-opacity:1"
       d="m -126.79245,302.38553 c -25.4338,-2.96438 -46.69307,-21.48863 -52.80021,-46.00742 -1.93355,-7.76278 -1.82334,-1.23772 -1.82334,-107.94686 0,-106.709138 -0.11021,-100.184072 1.82334,-107.946853 6.15831,-24.724225 27.36578,-43.0633291 53.22429,-46.0255612 4.40153,-0.5042182 458.41437,-0.5042182 462.8159,0 23.4236,2.6832997 42.71851,17.5712222 51.18528,39.4944762 1.23698,3.20293 2.61545,8.368315 3.38964,12.701549 0.70087,3.922881 0.70087,199.629899 0,203.552779 -2.83004,15.84014 -9.91431,28.43367 -21.39952,38.04139 -9.49488,7.94276 -20.71203,12.73043 -33.16111,14.15372 -3.89644,0.44548 -459.42971,0.42854 -463.25427,-0.0172 z"
       id="inner" /></g><g
     id="octaveUpLayer"
     transform="translate(207.87571,32.377878)"
     style="display:inline"><path
       style="display:inline;fill:#ffffff"
       d="m 285.74944,152.99061 c 9.65229,-19.30576 17.62975,-35.10139 17.72767,-35.10139 0.0979,0 8.07538,15.79563 17.72768,35.10139 L 338.75442,188.092 H 303.47711 268.1998 Z m -373.637363,34.18313 c -10.095077,-1.82335 -17.775367,-9.21355 -21.530587,-20.71734 -1.75677,-5.38172 -2.4581,-14.20621 -1.6029,-20.16856 1.96446,-13.69606 10.37675,-24.29427 21.755677,-27.40886 3.671455,-1.00493 12.159953,-1.1018 15.580687,-0.17779 7.14695,1.93052 12.058907,5.52011 16.195567,11.83548 3.808416,5.81426 5.590886,11.80584 5.945304,19.9845 0.420033,9.6928 -1.504075,17.93049 -5.685979,24.34343 -1.817882,2.78771 -6.571009,7.45371 -9.134463,8.96701 -5.813178,3.43173 -13.994041,4.70205 -21.523306,3.34213 z m 10.146405,-9.84529 c 1.125466,-0.29314 2.724151,-0.93024 3.552633,-1.41576 1.756175,-1.02919 5.13368,-4.46166 5.957179,-6.05413 1.041866,-2.01475 2.317649,-7.10171 2.689258,-10.72295 1.583342,-15.42926 -2.345463,-27.29157 -10.042792,-30.32239 -1.746338,-0.68762 -2.758383,-0.83241 -5.818233,-0.83241 -4.94859,0 -7.081814,0.80683 -10.079504,3.81227 -4.187719,4.19854 -6.151484,11.02474 -6.146195,21.36467 0.0057,11.0816 3.063316,19.35788 8.361447,22.6323 3.135125,1.93762 7.66983,2.54286 11.526207,1.5384 z m 57.544994,10.08215 c -8.386784,-1.37878 -14.269664,-5.87237 -18.490598,-14.12388 -3.109432,-6.07863 -4.616348,-12.7217 -4.616348,-20.35064 0,-12.2586 3.533424,-21.85674 10.410641,-28.27931 4.500648,-4.2031 9.5515,-6.24922 16.400472,-6.64389 14.2020018,-0.81837 24.7819993,7.31495 27.609785,21.22489 l 0.500903,2.46395 -1.09076,0.22605 c -1.8872293,0.39111 -10.43250279,1.13314 -10.64157713,0.92406 -0.10981507,-0.10981 -0.43866518,-1.12788 -0.73077802,-2.26238 -0.76267335,-2.96205 -2.67044355,-6.76383 -4.35381355,-8.67624 -0.9108535,-1.03479 -2.3320453,-2.08353 -3.8083833,-2.81033 -2.135003,-1.05106 -2.652875,-1.15949 -5.53768,-1.15949 -2.689539,0 -3.482921,0.14152 -5.122696,0.91375 -2.589062,1.21929 -4.08641,2.53929 -5.683556,5.01039 -2.527608,3.9107 -3.814184,9.0979 -4.096892,16.51779 -0.573076,15.0408 3.762468,24.47361 12.237084,26.62413 7.416225,1.88195 14.90867,-3.41675 16.63247352,-11.76258 0.41942965,-2.03068 0.49909315,-2.14948 1.34984145,-2.01297 0.49725823,0.0798 2.65035603,0.31298 4.78466173,0.51821 6.4029593,0.61567 6.1834513,0.54687 5.9478623,1.86412 -1.5726322,8.79307 -6.1286156,15.39358 -13.1855698,19.10269 -3.6600033,1.92369 -6.9122066,2.68367 -12.1650722,2.84277 -2.522361,0.0764 -5.379861,0.008 -6.35,-0.15109 z m 52.740282,-29.30471 v -28.575 h -9.348612 -9.348612 v -5.29167 -5.29166 h 25.576391 25.576391 v 5.29166 5.29167 h -9.348612 -9.348612 v 28.575 28.575 h -6.879167 -6.879167 z m 27.520561,28.31042 c 0.0021,-0.14552 5.218725,-15.34583 11.592408,-33.77847 l 11.588514,-33.51389 7.908112,-0.0946 7.908112,-0.0946 11.843815,33.88037 11.84381,33.88037 -6.87979,-0.0955 -6.87978,-0.0955 -2.8152,-8.02569 -2.81519,-8.0257 H 89.987517 76.61591 l -0.631742,1.49931 c -0.347458,0.82462 -1.639045,4.47587 -2.870194,8.11389 l -2.238452,6.61458 h -5.407548 c -2.974151,0 -5.405796,-0.11906 -5.403655,-0.26458 z m 39.781366,-25.92917 c -0.08477,-0.24253 -2.363833,-6.97832 -5.064594,-14.96841 -2.910487,-8.61056 -5.017219,-14.3367 -5.172557,-14.05913 -0.431868,0.77171 -9.79255,28.49278 -9.79255,29.00002 0,0.37856 1.937371,0.46849 10.09191,0.46849 7.920541,0 10.058751,-0.0949 9.937791,-0.44097 z m 39.630345,20.6452 c -0.97474,-3.06017 -5.82763,-18.18171 -10.78421,-33.60341 -4.95657,-15.42171 -9.01194,-28.1614 -9.01194,-28.31042 0,-0.14902 3.00889,-0.27095 6.68643,-0.27095 h 6.68643 l 1.01489,3.26319 c 11.48512,36.92855 15.07661,48.1736 15.26821,47.80529 0.12729,-0.24468 3.85223,-11.83518 8.27765,-25.75668 l 8.04622,-25.3118 h 5.36759 5.36759 l -4.69959,14.37569 c -2.58478,7.90663 -7.54232,23.10695 -11.01676,33.77848 l -6.31716,19.40277 -6.55655,0.0959 -6.55654,0.0959 z m 44.76218,-28.31811 v -33.86667 h 22.75417 22.75417 v 5.11528 5.11527 H 213.33643 196.9263 l 0.0942,9.08403 0.0941,9.08403 13.14098,0.0925 13.14097,0.0925 v 4.75391 4.75391 l -13.14097,0.0925 -13.14098,0.0925 -0.094,9.4368 -0.094,9.43681 h 16.58632 16.58632 v 5.29167 5.29166 h -22.93056 -22.93056 z"
       id="octaveUp"
       transform="translate(-1.2708334e-6)" /></g><g
     id="octaveDownLayer"
     transform="translate(207.87571,32.377878)"
     style="display:inline"><path
       style="display:inline;fill:#ffffff"
       d="m 119.98779,219.55162 c -10.09507,-1.82336 -17.77536,-9.21355 -21.530579,-20.71734 -1.756771,-5.38172 -2.458101,-14.20622 -1.602905,-20.16857 1.964462,-13.69606 10.376754,-24.29426 21.755674,-27.40885 3.67146,-1.00493 12.15996,-1.1018 15.58069,-0.1778 7.14695,1.93053 12.05891,5.52011 16.19557,11.83549 3.80841,5.81425 5.59088,11.80583 5.9453,19.9845 0.42004,9.69279 -1.50407,17.93049 -5.68598,24.34342 -1.81788,2.78772 -6.57101,7.45371 -9.13446,8.96701 -5.81318,3.43174 -13.99404,4.70206 -21.52331,3.34214 z m 10.14641,-9.84529 c 1.12547,-0.29315 2.72415,-0.93024 3.55263,-1.41576 1.75618,-1.02919 5.13368,-4.46166 5.95718,-6.05413 1.04187,-2.01475 2.31765,-7.10171 2.68926,-10.72295 1.58334,-15.42926 -2.34546,-27.29158 -10.04279,-30.32239 -1.74634,-0.68762 -2.75839,-0.83241 -5.81824,-0.83241 -4.94859,0 -7.08181,0.80682 -10.0795,3.81226 -4.18772,4.19854 -6.15148,11.02475 -6.1462,21.36467 0.006,11.08161 3.06332,19.35788 8.36145,22.63231 3.13513,1.93761 7.66983,2.54286 11.52621,1.5384 z m 57.54499,10.08215 c -8.38678,-1.37879 -14.26966,-5.87237 -18.49059,-14.12388 -3.10944,-6.07864 -4.61635,-12.7217 -4.61635,-20.35064 0,-12.25861 3.53342,-21.85675 10.41064,-28.27931 4.50065,-4.20311 9.5515,-6.24923 16.40047,-6.64389 14.202,-0.81838 24.782,7.31495 27.60979,21.22489 l 0.5009,2.46395 -1.09076,0.22605 c -1.88723,0.39111 -10.4325,1.13313 -10.64158,0.92406 -0.10981,-0.10981 -0.43866,-1.12789 -0.73078,-2.26239 -0.76267,-2.96204 -2.67044,-6.76383 -4.35381,-8.67624 -0.91085,-1.03478 -2.33205,-2.08352 -3.80838,-2.81032 -2.13501,-1.05106 -2.65288,-1.15949 -5.53768,-1.15949 -2.68954,0 -3.48292,0.14152 -5.1227,0.91375 -2.58906,1.21929 -4.08641,2.53929 -5.68356,5.01038 -2.5276,3.9107 -3.81418,9.0979 -4.09689,16.5178 -0.57307,15.04079 3.76247,24.4736 12.23709,26.62413 7.41622,1.88195 14.90867,-3.41675 16.63247,-11.76258 0.41943,-2.03068 0.49909,-2.14948 1.34984,-2.01297 0.49726,0.0798 2.65036,0.31298 4.78466,0.5182 6.40296,0.61568 6.18345,0.54688 5.94787,1.86413 -1.57264,8.79306 -6.12862,15.39358 -13.18557,19.10269 -3.66001,1.92369 -6.91221,2.68367 -12.16508,2.84276 -2.52236,0.0764 -5.37986,0.008 -6.35,-0.15108 z m 305.94596,-34.77277 -17.54963,-35.10139 h 35.27731 35.27731 l -17.54963,35.10139 c -9.6523,19.30577 -17.62976,35.10139 -17.72768,35.10139 -0.0979,0 -8.07538,-15.79562 -17.72768,-35.10139 z m -253.20568,5.46806 v -28.575 h -9.34861 -9.34861 v -5.29167 -5.29167 h 25.57639 25.57639 v 5.29167 5.29167 h -9.34861 -9.34861 v 28.575 28.575 h -6.87917 -6.87917 z m 27.52057,28.31042 c 0.002,-0.14553 5.21872,-15.34584 11.5924,-33.77848 l 11.58852,-33.51389 7.90811,-0.0946 7.90811,-0.0946 11.84381,33.88037 11.84381,33.88037 -6.87978,-0.0955 -6.87978,-0.0955 -2.8152,-8.02569 -2.8152,-8.0257 h -13.37161 -13.3716 l -0.63174,1.49931 c -0.34746,0.82461 -1.63905,4.47586 -2.8702,8.11389 l -2.23845,6.61458 h -5.40755 c -2.97415,0 -5.40579,-0.11906 -5.40365,-0.26458 z m 39.78136,-25.92917 c -0.0848,-0.24254 -2.36383,-6.97832 -5.06459,-14.96841 -2.91049,-8.61056 -5.01722,-14.3367 -5.17256,-14.05913 -0.43187,0.77171 -9.79255,28.49277 -9.79255,29.00002 0,0.37855 1.93737,0.46849 10.09191,0.46849 7.92054,0 10.05875,-0.0949 9.93779,-0.44097 z m 39.63035,20.64519 c -0.97474,-3.06017 -5.82764,-18.1817 -10.78421,-33.60341 -4.95657,-15.4217 -9.01195,-28.16139 -9.01195,-28.31042 0,-0.14902 3.0089,-0.27095 6.68644,-0.27095 h 6.68643 l 1.01489,3.2632 c 11.48512,36.92855 15.07661,48.1736 15.26821,47.80528 0.12728,-0.24467 3.85222,-11.83518 8.27765,-25.75667 l 8.04621,-25.31181 h 5.3676 5.36759 l -4.6996,14.3757 c -2.58478,7.90663 -7.54232,23.10694 -11.01675,33.77847 l -6.31716,19.40278 -6.55655,0.0959 -6.55655,0.0959 z m 44.76218,-28.31811 v -33.86667 h 22.75417 22.75417 v 5.11528 5.11528 h -16.41013 -16.41012 l 0.0941,9.08403 0.0942,9.08403 13.14097,0.0925 13.14098,0.0925 v 4.75391 4.75392 l -13.14098,0.0925 -13.14097,0.0925 -0.094,9.43681 -0.094,9.43681 h 16.58632 16.58632 v 5.29166 5.29167 H 415.0444 392.11384 Z"
       id="octaveDown"
       transform="translate(-207.87571,-32.377878)" /></g><g
     id="g3"
     transform="translate(207.87571,32.377878)"
     style="display:inline"
     inkscape:label="BankALayer"><path
       style="display:inline;fill:#ffffff"
       d="m 140.93613,185.19081 v -33.91287 l 17.37431,0.14207 c 18.89821,0.15453 20.17288,0.27289 24.20993,2.24804 2.77351,1.35695 5.69563,4.44549 7.32558,7.74279 1.36102,2.75324 1.36102,2.75327 1.36102,7.18185 0,4.23244 -0.049,4.53208 -1.10709,6.76517 -1.84983,3.90418 -4.74802,6.50832 -8.82662,7.93103 l -1.81982,0.63481 2.34899,0.75113 c 3.43914,1.09972 5.24844,2.13598 7.28409,4.17186 7.77439,7.77528 5.47394,22.36196 -4.33732,27.50197 -4.74738,2.48711 -4.53415,2.46496 -25.20404,2.6176 l -18.60903,0.13743 z m 32.79549,23.07938 c 4.86317,-1.4442 7.37046,-4.99635 6.97797,-9.8859 -0.29915,-3.72681 -2.63499,-6.77247 -6.23981,-8.13599 -1.34356,-0.50819 -3.2134,-0.62965 -11.39684,-0.74029 l -9.78958,-0.13234 v 9.72628 9.72628 h 9.28458 c 7.43928,0 9.65805,-0.11091 11.16368,-0.55804 z m -0.41483,-29.40189 c 3.57134,-1.58918 5.58636,-4.97398 5.50516,-9.24751 -0.0715,-3.76445 -1.93657,-6.25084 -5.85039,-7.79949 -1.68262,-0.66579 -2.77801,-0.75672 -10.78056,-0.89491 l -8.90764,-0.15383 v 9.59869 9.59868 l 9.08403,-0.13579 c 8.61865,-0.12883 9.17959,-0.17831 10.9494,-0.96584 z m 24.77401,39.9259 c 0.003,-0.14552 5.22091,-15.34583 11.59634,-33.77847 l 11.5917,-33.51389 7.91583,-0.0946 7.91583,-0.0946 3.41488,9.79603 c 1.87818,5.38782 7.20369,20.634 11.83446,33.88041 l 8.41957,24.08437 -6.88209,-0.0955 -6.88209,-0.0955 -2.81519,-8.0257 -2.8152,-8.02569 h -13.37161 -13.37161 l -0.63447,1.4993 c -0.34897,0.82462 -1.63401,4.47587 -2.85566,8.11389 l -2.22119,6.61458 h -5.42208 c -2.98214,0 -5.41999,-0.11906 -5.41742,-0.26458 z m 39.7969,-25.94132 c -0.7273,-2.88935 -10.05025,-29.37849 -10.22805,-29.06078 -0.41918,0.74904 -9.81795,28.55323 -9.81795,29.04426 0,0.38005 1.92293,0.46965 10.08003,0.46965 8.03229,0 10.05686,-0.0921 9.96597,-0.45313 z m 31.45955,-7.66076 v -33.86667 h 6.96996 6.96996 l 14.54949,23.51366 14.54949,23.51365 v -23.51365 -23.51366 h 5.11528 5.11527 v 33.86667 33.86666 h -6.28398 -6.28399 l -15.14727,-24.47811 -15.14726,-24.47811 -0.0906,24.47811 -0.0906,24.47811 h -5.11288 -5.11288 z m 68.4389,0 v -33.86667 h 6.34674 6.34673 l 0.0915,17.72708 0.0915,17.72709 1.25002,-1.82733 c 0.68751,-1.00502 6.72001,-8.97894 13.40555,-17.71982 l 12.15554,-15.89251 6.45902,-0.007 c 5.07544,-0.006 6.402,0.0872 6.19286,0.43371 -0.14638,0.24254 -3.77597,5.1241 -8.06577,10.84792 -4.28979,5.72382 -7.89979,10.57367 -8.02222,10.77745 -0.12243,0.20378 4.17709,10.52253 9.55448,22.93056 l 9.77707,22.56005 -7.04031,0.0957 c -5.30903,0.0722 -7.10684,-0.0119 -7.31082,-0.34196 -0.14877,-0.24072 -3.49397,-7.93953 -7.43379,-17.10848 -3.93981,-9.16895 -7.24267,-16.66708 -7.33969,-16.66251 -0.097,0.005 -3.23232,3.91831 -6.96736,8.6972 l -6.79097,8.68888 v 8.40378 8.40378 h -6.35 -6.35 z m 84.33425,33.42569 c 0.0112,-0.24253 5.21703,-15.44285 11.56852,-33.77847 l 11.54817,-33.3375 7.92245,-0.091 7.92245,-0.091 11.73135,33.60494 c 6.45224,18.48271 11.73068,33.72743 11.72986,33.87714 -8.1e-4,0.14971 -3.05726,0.22908 -6.7921,0.17639 l -6.79061,-0.0958 -2.65334,-7.58473 c -1.45934,-4.17159 -2.77856,-7.78316 -2.9316,-8.02569 -0.2146,-0.3401 -3.32984,-0.44097 -13.61823,-0.44097 h -13.33998 l -2.77879,8.11322 -2.77878,8.11322 -5.37986,6.7e-4 c -4.0799,5e-4 -5.37495,-0.10589 -5.35951,-0.44031 z m 39.76,-25.75278 c -0.0875,-0.24253 -2.35928,-6.91003 -5.04849,-14.81666 -2.68921,-7.90664 -4.9762,-14.37484 -5.0822,-14.37378 -0.2757,0.003 -10.15716,29.04836 -9.99073,29.36683 0.076,0.14552 4.67025,0.26459 10.20935,0.26459 7.9065,0 10.03691,-0.0948 9.91207,-0.44098 z"
       id="path1"
       inkscape:label="BankA"
       transform="translate(-207.87571,-32.377878)" /></g><g
     id="g4"
     transform="translate(207.87571,32.377878)"
     style="display:inline"
     inkscape:label="BankBLayer"><path
       style="fill:#ffffff"
       d="m 142.70002,185.19081 v -33.91287 l 17.37431,0.14207 c 18.89821,0.15453 20.17288,0.27289 24.20993,2.24804 2.77351,1.35695 5.69563,4.44549 7.32558,7.74279 1.36101,2.75324 1.36102,2.75327 1.36102,7.18185 0,4.23244 -0.049,4.53208 -1.10709,6.76517 -1.84983,3.90418 -4.74803,6.50832 -8.82662,7.93103 l -1.81982,0.63481 2.34899,0.75113 c 3.43914,1.09972 5.24844,2.13598 7.28408,4.17186 7.7744,7.77528 5.47395,22.36196 -4.33731,27.50197 -4.74738,2.48711 -4.53415,2.46496 -25.20404,2.6176 l -18.60903,0.13743 z m 32.79549,23.07938 c 4.86317,-1.4442 7.37046,-4.99635 6.97797,-9.8859 -0.29915,-3.72681 -2.63499,-6.77247 -6.23981,-8.13599 -1.34356,-0.50819 -3.2134,-0.62965 -11.39684,-0.74029 l -9.78958,-0.13234 v 9.72628 9.72628 h 9.28458 c 7.43928,0 9.65805,-0.11091 11.16368,-0.55804 z m -0.41483,-29.40189 c 3.57134,-1.58918 5.58636,-4.97398 5.50516,-9.24751 -0.0715,-3.76445 -1.93657,-6.25084 -5.85039,-7.79949 -1.68262,-0.66579 -2.77801,-0.75672 -10.78056,-0.89491 l -8.90764,-0.15383 v 9.59869 9.59868 l 9.08402,-0.13579 c 8.61866,-0.12883 9.1796,-0.17831 10.94941,-0.96584 z m 24.774,39.9259 c 0.003,-0.14552 5.22092,-15.34583 11.59635,-33.77847 l 11.5917,-33.51389 7.91583,-0.0946 7.91583,-0.0946 3.41488,9.79603 c 1.87818,5.38782 7.20369,20.634 11.83445,33.88041 l 8.41958,24.08437 -6.88209,-0.0955 -6.88209,-0.0955 -2.8152,-8.0257 -2.81519,-8.02569 h -13.37161 -13.37161 l -0.63448,1.4993 c -0.34896,0.82462 -1.634,4.47587 -2.85565,8.11389 l -2.22119,6.61458 h -5.42208 c -2.98215,0 -5.41999,-0.11906 -5.41743,-0.26458 z m 39.79691,-25.94132 c -0.7273,-2.88935 -10.05025,-29.37849 -10.22805,-29.06078 -0.41918,0.74904 -9.81796,28.55323 -9.81796,29.04426 0,0.38005 1.92294,0.46965 10.08004,0.46965 8.03229,0 10.05686,-0.0921 9.96597,-0.45313 z m 31.45955,-7.66076 v -33.86667 h 6.96996 6.96996 l 14.54949,23.51366 14.54949,23.51365 v -23.51365 -23.51366 h 5.11527 5.11528 v 33.86667 33.86666 h -6.28399 -6.28398 l -15.14727,-24.47811 -15.14726,-24.47811 -0.0906,24.47811 -0.0906,24.47811 h -5.11288 -5.11288 z m 68.4389,0 v -33.86667 h 6.34674 6.34673 l 0.0915,17.72708 0.0915,17.72709 1.25002,-1.82733 c 0.68751,-1.00502 6.72001,-8.97894 13.40555,-17.71982 l 12.15554,-15.89251 6.45902,-0.007 c 5.07544,-0.006 6.402,0.0872 6.19286,0.43371 -0.14638,0.24254 -3.77597,5.1241 -8.06577,10.84792 -4.28979,5.72382 -7.89979,10.57367 -8.02222,10.77745 -0.12243,0.20378 4.17708,10.52253 9.55448,22.93056 l 9.77707,22.56005 -7.04032,0.0957 c -5.30902,0.0722 -7.10683,-0.0119 -7.31081,-0.34196 -0.14877,-0.24072 -3.49397,-7.93953 -7.43379,-17.10848 -3.93981,-9.16895 -7.24267,-16.66708 -7.33969,-16.66251 -0.097,0.005 -3.23232,3.91831 -6.96736,8.6972 l -6.79097,8.68888 v 8.40378 8.40378 h -6.35 -6.35 z m 91.36945,-10e-4 v -33.91287 l 17.37431,0.14207 c 18.91498,0.15467 20.15308,0.27007 24.24732,2.26011 2.74118,1.33237 5.65434,4.42554 7.29633,7.74719 1.35146,2.73393 1.35288,2.74141 1.35288,7.16538 0,4.23244 -0.049,4.53208 -1.10709,6.76517 -1.84983,3.90418 -4.74803,6.50832 -8.82662,7.93103 l -1.81982,0.63481 2.34898,0.75113 c 3.44975,1.10312 5.24929,2.13685 7.3138,4.20136 6.28092,6.28091 6.23093,17.35045 -0.10933,24.21079 -2.03273,2.19946 -5.29,4.10863 -8.73604,5.1204 -1.87355,0.55008 -4.25405,0.63724 -20.72569,0.75888 l -18.60903,0.13743 z m 32.79549,23.07938 c 4.86317,-1.4442 7.37045,-4.99635 6.97797,-9.8859 -0.29916,-3.72681 -2.63499,-6.77247 -6.23981,-8.13599 -1.34356,-0.50819 -3.2134,-0.62965 -11.39684,-0.74029 l -9.78959,-0.13234 v 9.72628 9.72628 h 9.28458 c 7.43929,0 9.65806,-0.11091 11.16369,-0.55804 z m -0.41484,-29.40189 c 3.96884,-1.76606 6.26683,-6.22748 5.41535,-10.51357 -0.54805,-2.75872 -1.92033,-4.62006 -4.30547,-5.83986 -2.61763,-1.33871 -5.20546,-1.64898 -13.82317,-1.65733 l -7.32014,-0.007 v 9.55974 9.55974 l 9.08403,-0.13579 c 8.61866,-0.12883 9.17959,-0.17831 10.9494,-0.96584 z"
       id="path2"
       inkscape:label="BankB"
       transform="translate(-207.87571,-32.377878)" /></g></svg>
