<?xml version="1.0" encoding="UTF-8" standalone="no"?>
<!-- Created with Inkscape (http://www.inkscape.org/) -->

<svg
   width="499.99963"
   height="499.99963"
   viewBox="0 0 1146.5278 1146.5278"
   version="1.1"
   id="svg1"
   xml:space="preserve"
   xmlns="http://www.w3.org/2000/svg"
   xmlns:svg="http://www.w3.org/2000/svg"><defs
     id="defs1" /><g
     id="layer1"
     transform="translate(468.22433,424.83267)"><path
       style="display:inline;fill:#ffffff;fill-opacity:1"
       d="m -421.5766,721.30598 c -15.04357,-1.75272 -29.09302,-10.36826 -37.62136,-23.07054 -3.79839,-5.65742 -6.44964,-12.00019 -8.03654,-19.22639 -0.81345,-3.70417 -0.81345,-3.70417 -0.81345,-530.57781 0,-526.87363 0,-526.87363 0.81345,-530.5778 4.74384,-21.6019 20.09437,-36.95243 41.69628,-41.69628 3.70417,-0.81344 3.70417,-0.81344 530.5778,-0.81344 526.87364,0 526.87364,0 530.5778,0.81344 21.60191,4.74385 36.95244,20.09438 41.69628,41.69628 0.81345,3.70417 0.81345,3.70417 0.81345,530.5778 0,526.87364 0,526.87364 -0.81491,530.57781 -1.09991,4.99962 -2.53477,9.18212 -4.50164,13.12192 -7.38335,14.78946 -20.25518,24.72397 -37.01679,28.56967 -3.52777,0.8094 -3.52777,0.8094 -529.16669,0.85678 -289.1014,0.0261 -526.79306,-0.0871 -528.20368,-0.25144 z"
       id="path1" /><path
       style="display:inline;fill:#363636;fill-opacity:1"
       d="m -376.6785,677.2404 c -12.28317,-1.30828 -22.86392,-6.40949 -31.77275,-15.31832 -7.89907,-7.89907 -12.45842,-16.41776 -14.69657,-27.45908 -0.8029,-3.9609 -0.8029,-3.9609 -0.8029,-486.03176 0,-482.07085 0,-482.07085 0.8029,-486.03176 2.23815,-11.04131 6.7975,-19.56001 14.69657,-27.45907 7.89906,-7.89906 16.41775,-12.45841 27.45907,-14.69657 3.96091,-0.8029 3.96091,-0.8029 486.03176,-0.8029 482.07086,0 482.07086,0 486.03176,0.8029 11.04132,2.23816 19.56001,6.79751 27.45908,14.69657 7.89906,7.89906 12.45841,16.41776 14.69656,27.45907 0.8029,3.96091 0.8029,3.96091 0.8029,486.03176 0,482.07086 0,482.07086 -0.8029,486.03176 -2.23815,11.04132 -6.7975,19.56001 -14.69656,27.45908 -7.82756,7.82755 -16.19958,12.33815 -27.26938,14.69193 -3.79782,0.80754 -3.79782,0.80754 -484.63396,0.84847 -264.45987,0.0225 -481.94738,-0.0774 -483.30558,-0.22208 z"
       id="path2" /></g></svg>
