<?xml version="1.0" encoding="UTF-8" standalone="no"?>
<!-- Created with Inkscape (http://www.inkscape.org/) -->

<svg
   width="705.15588mm"
   height="705.40521mm"
   viewBox="0 0 705.15588 705.40521"
   version="1.1"
   id="svg1"
   xml:space="preserve"
   xmlns:xlink="http://www.w3.org/1999/xlink"
   xmlns="http://www.w3.org/2000/svg"
   xmlns:svg="http://www.w3.org/2000/svg"><defs
     id="defs1"><linearGradient
       id="linearGradient3"><stop
         style="stop-color:#981f24;stop-opacity:1;"
         offset="0.22921348"
         id="stop3" /><stop
         style="stop-color:#b95255;stop-opacity:1;"
         offset="1"
         id="stop4" /></linearGradient><linearGradient
       xlink:href="#linearGradient3"
       id="linearGradient4"
       x1="284.14911"
       y1="-65.032387"
       x2="-74.083641"
       y2="361.89279"
       gradientUnits="userSpaceOnUse"
       spreadMethod="pad" /></defs><g
     id="layer1"
     transform="translate(247.54257,204.31143)"><path
       style="fill:#9d2830;fill-opacity:1"
       d="M 92.33958,501.00155 C 71.810333,499.89458 61.498655,498.83564 46.012678,496.24405 17.714769,491.50839 -11.321281,482.78137 -37.907377,471.0212 -50.922179,465.26419 -68.570783,455.9241 -80.87432,448.282 -150.50217,405.03403 -203.35106,338.37202 -229.2354,261.14375 c -10.15891,-30.31005 -15.60431,-58.06303 -17.85832,-91.01667 -0.59846,-8.74939 -0.59846,-34.64229 0,-43.39167 2.25401,-32.953645 7.69941,-60.706619 17.85832,-91.016674 36.68451,-109.451561 125.9531,-194.677976 237.2183198,-226.476806 63.2315452,-18.07115 130.8817802,-18.07115 194.1133202,0 111.26606,31.79907 200.53354,117.024422 237.21832,226.476806 10.13855,30.249282 15.54926,57.781315 17.85231,90.840284 0.5891,8.45619 0.59698,35.20757 0.0128,43.56806 -2.32821,33.32238 -7.69918,60.68558 -17.86515,91.01667 -24.54212,73.22364 -73.14278,136.81216 -137.77774,180.26673 -33.96044,22.83186 -72.33059,39.81113 -112.00696,49.56448 -19.71589,4.84661 -38.70537,7.81897 -59.79583,9.35964 -7.0143,0.5124 -31.997131,0.95798 -37.39445,0.66695 z"
       id="outer" /><path
       style="fill:#7b1014;fill-opacity:1"
       d="M 90.046525,447.90487 C 26.740945,444.73494 -34.301163,421.3815 -83.457371,381.52591 -98.950278,368.96434 -115.49351,352.4211 -128.05508,336.9282 c -32.09259,-39.58164 -53.81239,-87.44511 -62.32495,-137.34417 -1.87581,-10.99562 -2.89225,-19.37612 -3.80804,-31.39723 -0.66261,-8.69762 -0.55011,-32.94177 0.19613,-42.26715 3.23989,-40.487207 13.27551,-76.737299 31.0756,-112.249526 42.54236,-84.874496 123.532577,-145.025134 216.80314,-161.017544 72.23711,-12.38596 145.81328,1.6336 207.78613,39.59259 73.70485,45.144959 124.7273,120.20153 139.13905,204.680515 3.19807,18.746505 4.24479,31.403785 4.24479,51.329165 0,19.92539 -1.04672,32.58267 -4.24479,51.32918 -8.51361,49.90518 -30.22844,97.75767 -62.32496,137.34417 -12.56157,15.4929 -29.1048,32.03614 -44.59771,44.59771 -57.22394,46.39687 -129.94946,70.07906 -203.842785,66.37896 z"
       id="ring" /><path
       style="fill:url(#linearGradient4)"
       d="m 93.397914,426.88365 c -5.525496,-0.21272 -17.367297,-1.23347 -23.812502,-2.0526 -80.069369,-10.17611 -151.497669,-54.56169 -196.692962,-122.22509 -55.50503,-83.09849 -61.80619,-190.9655 -16.37356,-280.29278 19.92024,-39.166141 49.344608,-73.705114 84.479014,-99.163342 44.674142,-32.370678 95.867401,-50.381688 150.81251,-53.059438 54.712996,-2.66644 109.252966,10.98177 156.052296,39.050889 52.7642,31.646708 93.1292,78.932448 116.00583,135.895481 25.66055,63.89503 26.43528,136.61231 2.14455,201.29031 -22.15954,59.00336 -63.7335,108.75617 -118.15038,141.39412 -46.27645,27.75551 -99.59908,41.27474 -154.464796,39.16245 z"
       id="inner" /></g></svg>
