<?xml version="1.0" encoding="UTF-8" standalone="no"?>
<!-- Created with Inkscape (http://www.inkscape.org/) -->

<svg
   width="705.15588mm"
   height="705.40521mm"
   viewBox="0 0 705.15588 705.40521"
   version="1.1"
   id="svg1"
   xml:space="preserve"
   xmlns="http://www.w3.org/2000/svg"
   xmlns:svg="http://www.w3.org/2000/svg"><defs
     id="defs1" /><g
     id="layer1"
     transform="translate(247.54257,204.31143)"><path
       style="fill:#0f0f0f;fill-opacity:1"
       d="M 92.33958,501.00155 C 71.810333,499.89458 61.498655,498.83564 46.012678,496.24405 17.714769,491.50839 -11.321281,482.78137 -37.907377,471.0212 -50.922179,465.26419 -68.570783,455.9241 -80.87432,448.282 -150.50217,405.03403 -203.35106,338.37202 -229.2354,261.14375 c -10.15891,-30.31005 -15.60431,-58.06303 -17.85832,-91.01667 -0.59846,-8.74939 -0.59846,-34.64229 0,-43.39167 2.25401,-32.953645 7.69941,-60.706619 17.85832,-91.016674 36.68451,-109.451561 125.9531,-194.677976 237.2183198,-226.476806 63.2315452,-18.07115 130.8817802,-18.07115 194.1133202,0 111.26606,31.79907 200.53354,117.024422 237.21832,226.476806 10.13855,30.249282 15.54926,57.781315 17.85231,90.840284 0.5891,8.45619 0.59698,35.20757 0.0128,43.56806 -2.32821,33.32238 -7.69918,60.68558 -17.86515,91.01667 -24.54212,73.22364 -73.14278,136.81216 -137.77774,180.26673 -33.96044,22.83186 -72.33059,39.81113 -112.00696,49.56448 -19.71589,4.84661 -38.70537,7.81897 -59.79583,9.35964 -7.0143,0.5124 -31.997131,0.95798 -37.39445,0.66695 z"
       id="path1" /></g></svg>
