<?xml version="1.0" encoding="UTF-8" standalone="no"?>
<!-- Created with Inkscape (http://www.inkscape.org/) -->

<svg
   width="482.24728mm"
   height="132.64444mm"
   viewBox="0 0 482.24728 132.64444"
   version="1.1"
   id="svg1"
   xml:space="preserve"
   xmlns="http://www.w3.org/2000/svg"
   xmlns:svg="http://www.w3.org/2000/svg"><defs
     id="defs1" /><g
     id="white"
     transform="translate(136.08405,-82.109032)"
     style="display:inline"><path
       style="fill:#ffffff"
       d="M 316.52987,148.43125 V 82.109032 h 14.81667 14.81667 v 66.322218 66.32222 h -14.81667 -14.81667 z"
       id="w15" /><path
       style="fill:#ffffff"
       d="m 284.42709,188.64792 v -26.10556 h 5.64445 5.64444 V 122.3257 82.109032 h 9.525 9.525 v 66.322218 66.32222 h -15.16944 -15.16945 z"
       id="w14" /><path
       style="fill:#ffffff"
       d="m 251.97154,188.64792 v -26.10556 h 4.05694 4.05694 V 122.3257 82.109032 h 9.17223 9.17222 v 40.216668 40.21666 h 2.11667 2.11666 v 26.10556 26.10555 h -15.34583 -15.34583 z"
       id="w13" /><path
       style="fill:#ffffff"
       d="m 219.86876,188.64792 v -26.10556 h 1.94027 1.94028 V 122.3257 82.109032 h 9.34861 9.34861 v 40.216668 40.21666 h 3.88056 3.88056 v 26.10556 26.10555 H 235.0382 219.86876 Z"
       id="w12" /><path
       style="fill:#ffffff"
       d="M 187.4132,148.43125 V 82.109032 h 9.34711 9.34711 l 0.0897,40.128468 0.0897,40.12847 5.90903,0.0967 5.90903,0.0967 v 26.09703 26.09702 H 202.75903 187.4132 Z"
       id="w11" /><path
       style="fill:#ffffff"
       d="m 154.60486,188.64792 v -26.10556 h 4.93889 4.93889 V 122.3257 82.109032 h 10.58333 10.58334 v 66.322218 66.32222 h -15.52222 -15.52223 z"
       id="w10" /><path
       style="fill:#ffffff"
       d="m 122.1493,188.64792 v -26.10556 h 2.46945 2.46944 V 122.3257 82.109032 h 10.23056 10.23056 v 40.216668 40.21666 h 2.64583 2.64583 v 26.10556 26.10555 H 137.49514 122.1493 Z"
       id="w09" /><path
       style="fill:#ffffff"
       d="M 89.693747,148.43125 V 82.109032 h 9.877778 9.877775 v 40.216668 40.21666 h 5.46806 5.46806 v 26.10556 26.10555 H 105.03958 89.693747 Z"
       id="w08" /><path
       style="fill:#ffffff"
       d="m 57.943745,188.64792 v -26.10556 h 5.468056 5.468056 V 122.3257 82.109032 h 9.525 9.525001 v 66.322218 66.32222 H 72.936801 57.943745 Z"
       id="w07" /><path
       style="fill:#ffffff"
       d="m 25.488187,188.64792 v -26.10556 h 3.880556 3.880556 V 122.3257 82.109032 h 9.348612 9.348611 v 40.216668 40.21666 h 2.116667 2.116667 v 26.10556 26.10555 H 40.834022 25.488187 Z"
       id="w06" /><path
       style="fill:#ffffff"
       d="m -6.6145926,188.64792 v -26.10556 h 1.763889 1.763889 V 122.3257 82.109032 h 9.5250006 9.525001 v 40.216668 40.21666 h 3.880555 3.880556 v 26.10556 26.10555 H 8.5548528 -6.6145926 Z"
       id="w05" /><path
       style="fill:#ffffff"
       d="M -39.07015,148.43125 V 82.109032 h 9.348611 9.348612 v 40.216668 40.21666 h 5.997223 5.9972224 v 26.10556 26.10555 H -23.724316 -39.07015 Z"
       id="w04" /><path
       style="fill:#ffffff"
       d="m -71.878486,188.64792 v -26.10556 h 5.115278 5.115279 V 122.3257 82.109032 h 10.406945 10.406945 v 66.322218 66.32222 h -15.522223 -15.522224 z"
       id="w03" /><path
       style="fill:#ffffff"
       d="m -104.33404,188.64792 v -26.10556 h 2.82222 2.822221 V 122.3257 82.109032 h 9.877779 9.877778 v 40.216668 40.21666 h 2.645834 2.645833 v 26.10556 26.10555 h -15.345834 -15.345831 z"
       id="w02" /><path
       style="fill:#ffffff"
       d="M -136.08405,148.43125 V 82.109032 h 9.52501 9.525 v 40.216668 40.21666 h 5.46805 5.46806 v 26.10556 26.10555 h -14.99306 -14.99306 z"
       id="w01" /></g><g
     id="black"
     style="display:inline"><path
       style="fill:#000000"
       d="M 280.19376,121.44375 V 82.109032 h 6.87917 6.87916 v 39.334718 39.33472 h -6.87916 -6.87917 z"
       id="b10"
       transform="translate(136.08405,-82.109032)" /><path
       style="fill:#000000"
       d="M 244.21042,121.44375 V 82.109032 h 7.05556 7.05556 v 39.334718 39.33472 h -7.05556 -7.05556 z"
       id="b09"
       transform="translate(136.08405,-82.109032)" /><path
       style="fill:#000000"
       d="M 207.87431,121.26736 V 82.109032 h 7.05556 7.05555 v 39.158328 39.15834 h -7.05555 -7.05556 z"
       id="b08"
       transform="translate(136.08405,-82.109032)" /><path
       style="fill:#000000"
       d="M 149.3132,121.26736 V 82.109032 h 6.70277 6.70278 v 39.158328 39.15834 h -6.70278 -6.70277 z"
       id="b07"
       transform="translate(136.08405,-82.109032)" /><path
       style="fill:#000000"
       d="M 111.21319,121.26736 V 82.109032 h 7.05556 7.05555 v 39.158328 39.15834 h -7.05555 -7.05556 z"
       id="b06"
       transform="translate(136.08405,-82.109032)" /><path
       style="fill:#000000"
       d="M 53.710411,121.26736 V 82.109032 h 6.702779 6.702778 V 121.26736 160.4257 H 60.41319 53.710411 Z"
       id="b05"
       transform="translate(136.08405,-82.109032)" /><path
       style="fill:#000000"
       d="M 17.727076,121.26736 V 82.109032 h 6.879167 6.879167 v 39.158328 39.15834 h -6.879167 -6.879167 z"
       id="b04"
       transform="translate(136.08405,-82.109032)" /><path
       style="fill:#000000"
       d="M -18.609038,121.26736 V 82.109032 h 6.879167 6.8791674 v 39.158328 39.15834 h -6.8791674 -6.879167 z"
       id="b03"
       transform="translate(136.08405,-82.109032)" /><path
       style="fill:#000000"
       d="M -77.170153,121.26736 V 82.109032 h 6.879167 6.879168 v 39.158328 39.15834 h -6.879168 -6.879167 z"
       id="b02"
       transform="translate(136.08405,-82.109032)" /><path
       style="fill:#000000"
       d="M -115.27016,121.26736 V 82.109032 h 7.40834 7.40833 v 39.158328 39.15834 h -7.40833 -7.40834 z"
       id="b01"
       transform="translate(136.08405,-82.109032)" /></g></svg>
