<?xml version="1.0" encoding="UTF-8" standalone="no"?>
<!-- Created with Inkscape (http://www.inkscape.org/) -->

<svg
   width="652.5658mm"
   height="696.50354mm"
   viewBox="0 0 652.56579 696.50354"
   version="1.1"
   id="svg1"
   xml:space="preserve"
   xmlns="http://www.w3.org/2000/svg"
   xmlns:svg="http://www.w3.org/2000/svg"><defs
     id="defs1" /><g
     id="layer1"
     transform="translate(221.24121,221.77778)"><path
       style="display:inline;fill:#ffffff"
       d="M 89.340971,474.3629 C -7.697695,469.80984 -97.654311,422.00503 -156.25405,343.84861 c -33.77194,-45.04275 -55.25972,-98.05201 -62.34243,-153.79559 -10.74938,-84.60166 11.51231,-169.245331 62.34243,-237.039145 18.86339,-25.158727 40.63452,-46.928321 65.926135,-65.921465 63.857561,-47.95486 143.615413,-70.66714 223.766105,-63.72085 92.54722,8.02064 176.74993,54.88927 232.87266,129.6208 33.97173,45.2358449 55.6755,99.090027 62.5561,155.22222 10.31141,84.12092 -12.06815,168.42715 -62.5561,235.65555 -19.00133,25.30166 -40.59434,46.89342 -65.90377,65.89995 -60.34242,45.31511 -134.9977,68.16196 -211.066109,64.59282 z"
       id="outer" /><path
       style="fill:#363636;fill-opacity:1"
       d="M 93.221526,448.08082 C 66.281008,446.7065 44.333826,443.10377 20.372917,436.12239 -62.64652,411.93342 -132.27382,351.34596 -168.20517,272.02775 c -14.71331,-32.47952 -23.07576,-65.80415 -25.96923,-103.48817 -0.58438,-7.61088 -0.58438,-32.60579 0,-40.21667 2.13465,-27.80136 7.10664,-52.607205 15.41463,-76.905552 26.66131,-77.976192 85.018886,-142.172339 160.20285,-176.230868 32.47952,-14.71331 65.804148,-23.07576 103.488169,-25.96923 7.610874,-0.58438 32.605791,-0.58438 40.216661,0 37.68402,2.89347 71.00865,11.25592 103.48817,25.96923 75.1812,34.057275 133.54252,98.257548 160.20285,176.230868 8.30659,24.294239 13.19016,48.653712 15.41798,76.905552 0.5741,7.28032 0.57277,32.75063 -0.002,40.21667 -2.14368,27.84113 -7.1084,52.60871 -15.41588,76.90555 -26.66131,77.97619 -85.01888,142.17234 -160.20285,176.23087 -32.30572,14.63457 -65.94439,23.10296 -102.959,25.91947 -4.9671,0.37796 -27.85214,0.72019 -32.455554,0.48535 z"
       id="inner" /><path
       style="fill:#ffffff"
       d="M 95.282303,165.56617 C 83.240067,163.29535 73.889853,154.61451 70.73445,142.77568 l -0.796257,-2.98749 V -27.95764 -195.70347 l 0.797238,-2.99861 c 2.872875,-10.80561 11.342234,-19.33915 22.133317,-22.30106 2.576447,-0.70718 3.636354,-0.77464 12.170832,-0.77464 8.58862,0 9.57804,0.0639 12.17083,0.78615 10.90777,3.03846 19.23703,11.43032 22.1343,22.30067 l 0.79626,2.98749 v 167.74583 167.74583 l -0.79626,2.98749 c -2.8991,10.8772 -11.30995,19.34349 -22.1343,22.28019 -2.44467,0.66325 -3.93127,0.78045 -11.1125,0.87609 -5.89577,0.0785 -9.019673,-0.0271 -10.815607,-0.36579 z"
       id="handle" /></g></svg>
